FILE "Tomb Raider II - Starring Lara Croft (Germany) (Track 01).bin" BINARY
  TRACK 01 MODE2/2352
    INDEX 01 00:00:00
  TRACK 02 AUDIO
    INDEX 00 23:06:02
    INDEX 01 23:08:02
  TRACK 03 AUDIO
    INDEX 00 24:33:36
    INDEX 01 24:35:36
  TRACK 04 AUDIO
    INDEX 00 26:29:61
    INDEX 01 26:31:61
  TRACK 05 AUDIO
    INDEX 00 28:47:46
    INDEX 01 28:49:46
  TRACK 06 AUDIO
    INDEX 00 28:57:51
    INDEX 01 28:59:51
  TRACK 07 AUDIO
    INDEX 00 29:07:11
    INDEX 01 29:09:11
  TRACK 08 AUDIO
    INDEX 00 29:14:12
    INDEX 01 29:16:12
  TRACK 09 AUDIO
    INDEX 00 29:21:14
    INDEX 01 29:23:14
  TRACK 10 AUDIO
    INDEX 00 29:29:52
    INDEX 01 29:31:52
  TRACK 11 AUDIO
    INDEX 00 29:43:67
    INDEX 01 29:45:67
  TRACK 12 AUDIO
    INDEX 00 30:01:03
    INDEX 01 30:03:03
  TRACK 13 AUDIO
    INDEX 00 30:12:34
    INDEX 01 30:14:34
  TRACK 14 AUDIO
    INDEX 00 30:23:65
    INDEX 01 30:25:65
  TRACK 15 AUDIO
    INDEX 00 30:30:66
    INDEX 01 30:32:66
  TRACK 16 AUDIO
    INDEX 00 30:37:68
    INDEX 01 30:39:68
  TRACK 17 AUDIO
    INDEX 00 30:44:69
    INDEX 01 30:46:69
  TRACK 18 AUDIO
    INDEX 00 30:56:21
    INDEX 01 30:58:21
  TRACK 19 AUDIO
    INDEX 00 31:03:23
    INDEX 01 31:05:23
  TRACK 20 AUDIO
    INDEX 00 31:10:25
    INDEX 01 31:12:25
  TRACK 21 AUDIO
    INDEX 00 31:17:26
    INDEX 01 31:19:26
  TRACK 22 AUDIO
    INDEX 00 31:24:29
    INDEX 01 31:26:29
  TRACK 23 AUDIO
    INDEX 00 31:31:31
    INDEX 01 31:33:31
  TRACK 24 AUDIO
    INDEX 00 31:50:05
    INDEX 01 31:52:05
  TRACK 25 AUDIO
    INDEX 00 32:01:06
    INDEX 01 32:03:06
  TRACK 26 AUDIO
    INDEX 00 32:08:07
    INDEX 01 32:10:07
  TRACK 27 AUDIO
    INDEX 00 33:01:72
    INDEX 01 33:03:72
  TRACK 28 AUDIO
    INDEX 00 35:02:08
    INDEX 01 35:04:08
  TRACK 29 AUDIO
    INDEX 00 37:01:66
    INDEX 01 37:03:66
  TRACK 30 AUDIO
    INDEX 00 39:50:25
    INDEX 01 39:52:25
  TRACK 31 AUDIO
    INDEX 00 42:56:10
    INDEX 01 42:58:10
  TRACK 32 AUDIO
    INDEX 00 43:05:67
    INDEX 01 43:07:67
  TRACK 33 AUDIO
    INDEX 00 43:12:40
    INDEX 01 43:14:40
  TRACK 34 AUDIO
    INDEX 00 43:31:00
    INDEX 01 43:33:00
  TRACK 35 AUDIO
    INDEX 00 44:27:34
    INDEX 01 44:29:34
  TRACK 36 AUDIO
    INDEX 00 44:49:25
    INDEX 01 44:51:25
  TRACK 37 AUDIO
    INDEX 00 47:30:19
    INDEX 01 47:32:19
  TRACK 38 AUDIO
    INDEX 00 47:44:32
    INDEX 01 47:46:32
  TRACK 39 AUDIO
    INDEX 00 47:57:64
    INDEX 01 47:59:64
  TRACK 40 AUDIO
    INDEX 00 48:14:52
    INDEX 01 48:16:52
  TRACK 41 AUDIO
    INDEX 00 48:34:40
    INDEX 01 48:36:40
  TRACK 42 AUDIO
    INDEX 00 49:35:46
    INDEX 01 49:37:46
  TRACK 43 AUDIO
    INDEX 00 50:11:01
    INDEX 01 50:13:01
  TRACK 44 AUDIO
    INDEX 00 50:17:30
    INDEX 01 50:19:30
  TRACK 45 AUDIO
    INDEX 00 50:33:29
    INDEX 01 50:35:29
  TRACK 46 AUDIO
    INDEX 00 50:45:27
    INDEX 01 50:47:27
  TRACK 47 AUDIO
    INDEX 00 50:59:54
    INDEX 01 51:01:54
  TRACK 48 AUDIO
    INDEX 00 51:10:12
    INDEX 01 51:12:12
  TRACK 49 AUDIO
    INDEX 00 53:55:20
    INDEX 01 53:57:20
  TRACK 50 AUDIO
    INDEX 00 55:08:45
    INDEX 01 55:10:45
  TRACK 51 AUDIO
    INDEX 00 55:18:17
    INDEX 01 55:20:17
  TRACK 52 AUDIO
    INDEX 00 56:02:25
    INDEX 01 56:04:25
  TRACK 53 AUDIO
    INDEX 00 56:14:10
    INDEX 01 56:16:10
  TRACK 54 AUDIO
    INDEX 00 57:05:16
    INDEX 01 57:07:16
  TRACK 55 AUDIO
    INDEX 00 60:36:60
    INDEX 01 60:38:60
  TRACK 56 AUDIO
    INDEX 00 64:08:42
    INDEX 01 64:10:42
  TRACK 57 AUDIO
    INDEX 00 65:56:20
    INDEX 01 65:58:20
  TRACK 58 AUDIO
    INDEX 00 66:21:65
    INDEX 01 66:23:65
  TRACK 59 AUDIO
    INDEX 00 66:45:39
    INDEX 01 66:47:39
  TRACK 60 AUDIO
    INDEX 00 67:05:18
    INDEX 01 67:07:18
  TRACK 61 AUDIO
    INDEX 00 69:53:65
    INDEX 01 69:55:65
